<svg width="164" height="24" viewBox="0 0 164 24" fill="none" xmlns="http://www.w3.org/2000/svg">
<path d="M45.0905 16.9924V8.64633C45.0905 7.05213 45.503 5.79557 46.3278 4.87564C47.1538 3.95571 48.1872 3.49575 49.4267 3.49575C51.8585 3.49575 53.0744 5.08995 53.0744 8.27836V16.9924H57.3362V7.30788C57.3362 4.86654 56.7728 3.04185 55.6425 1.83179C54.5134 0.621738 52.9009 0.0172144 50.8038 0.0172144C49.4267 0.0172144 48.1669 0.253767 47.0265 0.727883C45.8925 1.19633 44.9024 1.90512 44.1417 2.79317H44.0673C42.963 0.942195 41.1149 0.0172144 38.5209 0.0172144C37.4289 0.0172144 36.3776 0.236581 35.3668 0.677337C34.3394 1.12949 33.4345 1.77741 32.7153 2.57582H32.6589V0.26792H28.3971V16.9752H32.6589V8.64633C32.6589 7.05213 33.0781 5.79557 33.9154 4.87564C34.7526 3.95571 35.8232 3.49575 37.1258 3.49575C39.5937 3.49575 40.8287 5.08995 40.8287 8.27836V16.9924H45.0905V16.9924ZM68.8686 17.2431C71.3996 17.2431 73.3727 16.4071 74.7869 14.734H74.8433V16.9752H78.918V0.26792H74.6562V2.27457H74.5818C73.1676 0.76933 71.2519 0.0172144 68.8314 0.0172144C67.6349 0.00959177 66.4494 0.222327 65.3483 0.642256C64.2472 1.06218 63.2538 1.68037 62.4297 2.45856C61.6352 3.21674 61.0098 4.13667 60.5501 5.21834C60.0851 6.32991 59.8517 7.50864 59.8615 8.69586C59.8615 9.96758 60.0903 11.1382 60.5489 12.2088C61.0087 13.2793 61.6352 14.1821 62.4297 14.918C63.2377 15.6624 64.2109 16.2465 65.2863 16.6325C66.4247 17.0444 67.6422 17.2518 68.8697 17.2431H68.8686ZM69.5391 13.7646C67.9626 13.7646 66.6791 13.2935 65.6863 12.3513C64.6947 11.4091 64.1977 10.196 64.1977 8.71305C64.1977 7.14109 64.7093 5.87846 65.7325 4.92517C66.7569 3.97189 68.0313 3.49575 69.5571 3.49575C71.0705 3.49575 72.327 3.99413 73.3265 4.99189C74.3249 5.99067 74.8252 7.23106 74.8252 8.71305C74.8252 10.196 74.3125 11.4091 73.2893 12.3513C72.265 13.2935 71.0153 13.7646 69.5391 13.7646V13.7646ZM100.091 16.9924V7.14108C100.091 4.72198 99.4868 2.92964 98.2765 1.76406C97.0685 0.599498 95.3951 0.0172144 93.2619 0.0172144C92.0753 0.0114473 90.9011 0.23378 89.8182 0.66925C88.741 1.10282 87.7869 1.74903 87.027 2.55965H86.9706V0.266909H82.7088V16.9742H86.9706V8.57961C86.9706 6.97429 87.4079 5.72581 88.2823 4.83318C89.1579 3.94156 90.3265 3.49575 91.7903 3.49575C92.4607 3.49575 93.0343 3.57359 93.5121 3.72927C93.9899 3.88596 94.4091 4.1397 94.7686 4.49048C95.1292 4.84228 95.3951 5.31842 95.5686 5.92092C95.7422 6.52241 95.829 7.25835 95.829 8.12773V16.9924H100.091V16.9924ZM111.605 17.2431C114.136 17.2431 116.108 16.4071 117.523 14.734H117.58V16.9752H121.655V0.26792H117.393V2.27457H117.318C115.904 0.76933 113.987 0.0172144 111.568 0.0172144C110.371 0.00945315 109.186 0.222121 108.084 0.642054C106.983 1.06199 105.989 1.68025 105.165 2.45856C104.372 3.21674 103.745 4.13667 103.285 5.21834C102.821 6.32997 102.588 7.50871 102.598 8.69586C102.598 9.96758 102.827 11.1382 103.285 12.2088C103.745 13.2793 104.372 14.1821 105.165 14.918C105.973 15.6626 106.947 16.2467 108.023 16.6325C109.161 17.0443 110.378 17.2517 111.605 17.2431V17.2431ZM112.274 13.7646C110.699 13.7646 109.414 13.2935 108.423 12.3513C107.43 11.4091 106.933 10.196 106.933 8.71305C106.933 7.14109 107.446 5.87846 108.469 4.92517C109.492 3.97189 110.768 3.49575 112.294 3.49575C113.807 3.49575 115.063 3.99413 116.062 4.99189C117.06 5.99067 117.561 7.23106 117.561 8.71305C117.561 10.196 117.048 11.4091 116.025 12.3513C115.002 13.2935 113.751 13.7646 112.274 13.7646V13.7646ZM133.764 24C135.116 24 136.326 23.8585 137.392 23.5734C138.46 23.2893 139.357 22.8931 140.082 22.3856C140.812 21.8742 141.425 21.2413 141.887 20.5215C142.371 19.7722 142.719 18.9592 142.92 18.1125C143.132 17.2431 143.236 16.2898 143.236 15.2526V0.26792H138.975V2.02387H138.9C138.137 1.3688 137.235 0.856749 136.249 0.517614C135.254 0.172928 134.197 -0.00259261 133.131 2.89376e-05C131.431 2.89376e-05 129.905 0.361934 128.553 1.08676C127.201 1.81158 126.149 2.81844 125.398 4.10634C124.648 5.39322 124.272 6.84084 124.272 8.44617C124.272 10.0737 124.667 11.5173 125.454 12.7779C126.242 14.0375 127.325 15.0049 128.702 15.6792C130.079 16.3535 131.63 16.6911 133.355 16.6911C135.662 16.6911 137.542 16.0108 138.994 14.6511H139.068V16.4232C139.068 17.606 138.584 18.5866 137.617 19.367C136.648 20.1474 135.284 20.5376 133.522 20.5376C132.318 20.5376 131.261 20.4042 130.348 20.1363C129.437 19.8684 128.385 19.4509 127.194 18.8828L126.189 22.2602C127.231 22.8183 128.404 23.2469 129.707 23.5481C131.01 23.8494 132.362 24 133.764 24V24ZM133.913 13.1631C132.374 13.1631 131.106 12.7243 130.107 11.8489C129.108 10.9744 128.608 9.80078 128.608 8.3289C128.608 6.91363 129.099 5.75917 130.079 4.86654C131.059 3.97492 132.337 3.52911 133.913 3.52911C135.414 3.52911 136.664 3.96885 137.663 4.85037C138.661 5.73087 139.162 6.87421 139.162 8.27836C139.162 9.69464 138.674 10.8622 137.7 11.7822C136.726 12.7021 135.463 13.1621 133.913 13.1621V13.1631ZM155.42 17.2431C157.158 17.2431 158.687 16.959 160.008 16.3899C161.329 15.8218 162.411 15.0525 163.255 14.082L160.278 11.7913C159.112 13.1065 157.567 13.7646 155.643 13.7646C154.28 13.7646 153.122 13.4239 152.172 12.7435C151.224 12.0642 150.613 11.1332 150.339 9.95141H163.888C163.963 9.55008 164 9.04159 164 8.42898C164 6.81254 163.634 5.36896 162.901 4.09724C162.191 2.84667 161.092 1.80714 159.738 1.10394C158.361 0.37912 156.772 0.0172144 154.974 0.0172144C153.742 0.0089349 152.52 0.222044 151.381 0.643977C150.266 1.06249 149.303 1.64478 148.497 2.39184C147.691 3.1389 147.058 4.04771 146.599 5.11725C146.14 6.18881 145.91 7.35338 145.91 8.61297C145.91 10.3194 146.326 11.8327 147.157 13.154C147.988 14.4752 149.124 15.4871 150.563 16.1897C152.002 16.8923 153.622 17.2431 155.42 17.2431ZM159.719 6.85702H150.415C150.712 5.78647 151.289 4.95853 152.144 4.37322C153.001 3.7879 154.018 3.49575 155.197 3.49575C156.388 3.49575 157.372 3.797 158.147 4.39849C158.922 5.00099 159.446 5.81983 159.719 6.85702Z" fill="white"/>
<path fill-rule="evenodd" clip-rule="evenodd" d="M3.13946 10.3982C4.87258 10.3982 6.27779 11.6912 6.27779 13.2864C6.27779 14.8806 4.87258 16.1745 3.13946 16.1745C1.40521 16.1745 0 14.8806 0 13.2864C0 11.6912 1.40521 10.3982 3.13946 10.3982V10.3982ZM3.13946 0C4.87258 0 6.27666 1.29396 6.27666 2.88816C6.27666 4.48338 4.87146 5.77633 3.13833 5.77633C1.40521 5.77633 0 4.48338 0 2.88816C0 1.29396 1.40521 0 3.13946 0ZM14.4397 0C16.174 0 17.5792 1.29396 17.5792 2.88816C17.5792 4.48338 16.174 5.77633 14.4397 5.77633C12.7066 5.77633 11.3014 4.48338 11.3014 2.88816C11.3014 1.29396 12.7066 0 14.4397 0Z" fill="#F3603C"/>
<path opacity="0.5" d="M14.4399 16.2898C16.1737 16.2898 17.5793 14.9967 17.5793 13.4016C17.5793 11.8065 16.1737 10.5134 14.4399 10.5134C12.706 10.5134 11.3004 11.8065 11.3004 13.4016C11.3004 14.9967 12.706 16.2898 14.4399 16.2898Z" fill="#F3603C"/>
</svg>
